<svg xmlns="http://www.w3.org/2000/svg" width="310" height="269" viewBox="0 0 310 269"><g id="Group_33" data-name="Group 33" transform="translate(-377.604 -754.531)"><g id="Group_16" data-name="Group 16" transform="translate(378 755)"><circle id="Ellipse_1" cx="3.5" cy="3.5" r="3.5" fill="#fff" data-name="Ellipse 1" transform="translate(-0.397 -0.469)"/><ellipse id="Ellipse_12" cx="3" cy="3.5" fill="#fff" data-name="Ellipse 12" rx="3" ry="3.5" transform="translate(107.603 -0.469)"/><ellipse id="Ellipse_18" cx="3" cy="3.5" fill="#fff" data-name="Ellipse 18" rx="3" ry="3.5" transform="translate(214.604 -0.469)"/><ellipse id="Ellipse_6" cx="3" cy="3.5" fill="#fff" data-name="Ellipse 6" rx="3" ry="3.5" transform="translate(53.603 -0.469)"/><ellipse id="Ellipse_9" cx="3" cy="3.5" fill="#fff" data-name="Ellipse 9" rx="3" ry="3.5" transform="translate(160.603 -0.469)"/><ellipse id="Ellipse_15" cx="3" cy="3.5" fill="#fff" data-name="Ellipse 15" rx="3" ry="3.5" transform="translate(266.604 -0.469)"/><ellipse id="Ellipse_2" cx="3" cy="3.5" fill="#fff" data-name="Ellipse 2" rx="3" ry="3.5" transform="translate(17.603 -0.469)"/><ellipse id="Ellipse_11" cx="3" cy="3.5" fill="#fff" data-name="Ellipse 11" rx="3" ry="3.5" transform="translate(124.603 -0.469)"/><circle id="Ellipse_17" cx="3.5" cy="3.5" r="3.5" fill="#fff" data-name="Ellipse 17" transform="translate(231.604 -0.469)"/><circle id="Ellipse_5" cx="3.5" cy="3.5" r="3.5" fill="#fff" data-name="Ellipse 5" transform="translate(70.604 -0.469)"/><ellipse id="Ellipse_8" cx="3" cy="3.5" fill="#fff" data-name="Ellipse 8" rx="3" ry="3.5" transform="translate(178.603 -0.469)"/><ellipse id="Ellipse_14" cx="3" cy="3.5" fill="#fff" data-name="Ellipse 14" rx="3" ry="3.5" transform="translate(285.603 -0.469)"/><ellipse id="Ellipse_3" cx="3" cy="3.5" fill="#fff" data-name="Ellipse 3" rx="3" ry="3.5" transform="translate(36.604 -0.469)"/><ellipse id="Ellipse_10" cx="3" cy="3.5" fill="#fff" data-name="Ellipse 10" rx="3" ry="3.5" transform="translate(142.603 -0.469)"/><ellipse id="Ellipse_16" cx="3" cy="3.5" fill="#fff" data-name="Ellipse 16" rx="3" ry="3.5" transform="translate(249.603 -0.469)"/><ellipse id="Ellipse_4" cx="3" cy="3.5" fill="#fff" data-name="Ellipse 4" rx="3" ry="3.5" transform="translate(88.604 -0.469)"/><ellipse id="Ellipse_7" cx="3" cy="3.5" fill="#fff" data-name="Ellipse 7" rx="3" ry="3.5" transform="translate(195.603 -0.469)"/><circle id="Ellipse_13" cx="3.5" cy="3.5" r="3.5" fill="#fff" data-name="Ellipse 13" transform="translate(302.603 -0.469)"/></g><g id="Group_19" data-name="Group 19" transform="translate(378 789.91)"><circle id="Ellipse_1-2" cx="3.5" cy="3.5" r="3.5" fill="#fff" data-name="Ellipse 1" transform="translate(-0.397 -0.379)"/><ellipse id="Ellipse_12-2" cx="3" cy="3.5" fill="#fff" data-name="Ellipse 12" rx="3" ry="3.5" transform="translate(107.603 -0.379)"/><ellipse id="Ellipse_18-2" cx="3" cy="3.5" fill="#fff" data-name="Ellipse 18" rx="3" ry="3.5" transform="translate(214.604 -0.379)"/><ellipse id="Ellipse_6-2" cx="3" cy="3.5" fill="#fff" data-name="Ellipse 6" rx="3" ry="3.5" transform="translate(53.603 -0.379)"/><ellipse id="Ellipse_9-2" cx="3" cy="3.5" fill="#fff" data-name="Ellipse 9" rx="3" ry="3.5" transform="translate(160.603 -0.379)"/><ellipse id="Ellipse_15-2" cx="3" cy="3.5" fill="#fff" data-name="Ellipse 15" rx="3" ry="3.5" transform="translate(266.604 -0.379)"/><ellipse id="Ellipse_2-2" cx="3" cy="3.5" fill="#fff" data-name="Ellipse 2" rx="3" ry="3.5" transform="translate(17.603 -0.379)"/><ellipse id="Ellipse_11-2" cx="3" cy="3.5" fill="#fff" data-name="Ellipse 11" rx="3" ry="3.5" transform="translate(124.603 -0.379)"/><circle id="Ellipse_17-2" cx="3.5" cy="3.5" r="3.5" fill="#fff" data-name="Ellipse 17" transform="translate(231.604 -0.379)"/><circle id="Ellipse_5-2" cx="3.5" cy="3.5" r="3.5" fill="#fff" data-name="Ellipse 5" transform="translate(70.604 -0.379)"/><ellipse id="Ellipse_8-2" cx="3" cy="3.5" fill="#fff" data-name="Ellipse 8" rx="3" ry="3.5" transform="translate(178.603 -0.379)"/><ellipse id="Ellipse_14-2" cx="3" cy="3.5" fill="#fff" data-name="Ellipse 14" rx="3" ry="3.5" transform="translate(285.603 -0.379)"/><ellipse id="Ellipse_3-2" cx="3" cy="3.5" fill="#fff" data-name="Ellipse 3" rx="3" ry="3.5" transform="translate(36.604 -0.379)"/><ellipse id="Ellipse_10-2" cx="3" cy="3.5" fill="#fff" data-name="Ellipse 10" rx="3" ry="3.5" transform="translate(142.603 -0.379)"/><ellipse id="Ellipse_16-2" cx="3" cy="3.5" fill="#fff" data-name="Ellipse 16" rx="3" ry="3.5" transform="translate(249.603 -0.379)"/><ellipse id="Ellipse_4-2" cx="3" cy="3.5" fill="#fff" data-name="Ellipse 4" rx="3" ry="3.5" transform="translate(88.604 -0.379)"/><ellipse id="Ellipse_7-2" cx="3" cy="3.5" fill="#fff" data-name="Ellipse 7" rx="3" ry="3.5" transform="translate(195.603 -0.379)"/><circle id="Ellipse_13-2" cx="3.5" cy="3.5" r="3.5" fill="#fff" data-name="Ellipse 13" transform="translate(302.603 -0.379)"/></g><g id="Group_21" data-name="Group 21" transform="translate(378 824.821)"><circle id="Ellipse_1-3" cx="3.5" cy="3.5" r="3.5" fill="#fff" data-name="Ellipse 1" transform="translate(-0.397 -0.29)"/><ellipse id="Ellipse_12-3" cx="3" cy="3.5" fill="#fff" data-name="Ellipse 12" rx="3" ry="3.5" transform="translate(107.603 -0.29)"/><ellipse id="Ellipse_18-3" cx="3" cy="3.5" fill="#fff" data-name="Ellipse 18" rx="3" ry="3.5" transform="translate(214.604 -0.29)"/><ellipse id="Ellipse_6-3" cx="3" cy="3.5" fill="#fff" data-name="Ellipse 6" rx="3" ry="3.5" transform="translate(53.603 -0.29)"/><ellipse id="Ellipse_9-3" cx="3" cy="3.5" fill="#fff" data-name="Ellipse 9" rx="3" ry="3.5" transform="translate(160.603 -0.29)"/><ellipse id="Ellipse_15-3" cx="3" cy="3.5" fill="#fff" data-name="Ellipse 15" rx="3" ry="3.5" transform="translate(266.604 -0.29)"/><ellipse id="Ellipse_2-3" cx="3" cy="3.5" fill="#fff" data-name="Ellipse 2" rx="3" ry="3.5" transform="translate(17.603 -0.29)"/><ellipse id="Ellipse_11-3" cx="3" cy="3.5" fill="#fff" data-name="Ellipse 11" rx="3" ry="3.5" transform="translate(124.603 -0.29)"/><circle id="Ellipse_17-3" cx="3.5" cy="3.5" r="3.5" fill="#fff" data-name="Ellipse 17" transform="translate(231.604 -0.29)"/><circle id="Ellipse_5-3" cx="3.5" cy="3.5" r="3.5" fill="#fff" data-name="Ellipse 5" transform="translate(70.604 -0.29)"/><ellipse id="Ellipse_8-3" cx="3" cy="3.5" fill="#fff" data-name="Ellipse 8" rx="3" ry="3.5" transform="translate(178.603 -0.29)"/><ellipse id="Ellipse_14-3" cx="3" cy="3.5" fill="#fff" data-name="Ellipse 14" rx="3" ry="3.5" transform="translate(285.603 -0.29)"/><ellipse id="Ellipse_3-3" cx="3" cy="3.5" fill="#fff" data-name="Ellipse 3" rx="3" ry="3.5" transform="translate(36.604 -0.29)"/><ellipse id="Ellipse_10-3" cx="3" cy="3.5" fill="#fff" data-name="Ellipse 10" rx="3" ry="3.5" transform="translate(142.603 -0.29)"/><ellipse id="Ellipse_16-3" cx="3" cy="3.5" fill="#fff" data-name="Ellipse 16" rx="3" ry="3.5" transform="translate(249.603 -0.29)"/><ellipse id="Ellipse_4-3" cx="3" cy="3.5" fill="#fff" data-name="Ellipse 4" rx="3" ry="3.5" transform="translate(88.604 -0.29)"/><ellipse id="Ellipse_7-3" cx="3" cy="3.5" fill="#fff" data-name="Ellipse 7" rx="3" ry="3.5" transform="translate(195.603 -0.29)"/><circle id="Ellipse_13-3" cx="3.5" cy="3.5" r="3.5" fill="#fff" data-name="Ellipse 13" transform="translate(302.603 -0.29)"/></g><g id="Group_23" data-name="Group 23" transform="translate(378 859.731)"><ellipse id="Ellipse_1-4" cx="3.5" cy="3" fill="#fff" data-name="Ellipse 1" rx="3.5" ry="3" transform="translate(-0.397 -0.2)"/><circle id="Ellipse_12-4" cx="3" cy="3" r="3" fill="#fff" data-name="Ellipse 12" transform="translate(107.603 -0.2)"/><circle id="Ellipse_18-4" cx="3" cy="3" r="3" fill="#fff" data-name="Ellipse 18" transform="translate(214.604 -0.2)"/><circle id="Ellipse_6-4" cx="3" cy="3" r="3" fill="#fff" data-name="Ellipse 6" transform="translate(53.603 -0.2)"/><circle id="Ellipse_9-4" cx="3" cy="3" r="3" fill="#fff" data-name="Ellipse 9" transform="translate(160.603 -0.2)"/><circle id="Ellipse_15-4" cx="3" cy="3" r="3" fill="#fff" data-name="Ellipse 15" transform="translate(266.604 -0.2)"/><circle id="Ellipse_2-4" cx="3" cy="3" r="3" fill="#fff" data-name="Ellipse 2" transform="translate(17.603 -0.2)"/><circle id="Ellipse_11-4" cx="3" cy="3" r="3" fill="#fff" data-name="Ellipse 11" transform="translate(124.603 -0.2)"/><ellipse id="Ellipse_17-4" cx="3.5" cy="3" fill="#fff" data-name="Ellipse 17" rx="3.5" ry="3" transform="translate(231.604 -0.2)"/><ellipse id="Ellipse_5-4" cx="3.5" cy="3" fill="#fff" data-name="Ellipse 5" rx="3.5" ry="3" transform="translate(70.604 -0.2)"/><circle id="Ellipse_8-4" cx="3" cy="3" r="3" fill="#fff" data-name="Ellipse 8" transform="translate(178.603 -0.2)"/><circle id="Ellipse_14-4" cx="3" cy="3" r="3" fill="#fff" data-name="Ellipse 14" transform="translate(285.603 -0.2)"/><circle id="Ellipse_3-4" cx="3" cy="3" r="3" fill="#fff" data-name="Ellipse 3" transform="translate(36.604 -0.2)"/><circle id="Ellipse_10-4" cx="3" cy="3" r="3" fill="#fff" data-name="Ellipse 10" transform="translate(142.603 -0.2)"/><circle id="Ellipse_16-4" cx="3" cy="3" r="3" fill="#fff" data-name="Ellipse 16" transform="translate(249.603 -0.2)"/><circle id="Ellipse_4-4" cx="3" cy="3" r="3" fill="#fff" data-name="Ellipse 4" transform="translate(88.604 -0.2)"/><circle id="Ellipse_7-4" cx="3" cy="3" r="3" fill="#fff" data-name="Ellipse 7" transform="translate(195.603 -0.2)"/><ellipse id="Ellipse_13-4" cx="3.5" cy="3" fill="#fff" data-name="Ellipse 13" rx="3.5" ry="3" transform="translate(302.603 -0.2)"/></g><g id="Group_25" data-name="Group 25" transform="translate(378 894.642)"><ellipse id="Ellipse_1-5" cx="3.5" cy="3" fill="#fff" data-name="Ellipse 1" rx="3.5" ry="3" transform="translate(-0.397 -0.111)"/><circle id="Ellipse_12-5" cx="3" cy="3" r="3" fill="#fff" data-name="Ellipse 12" transform="translate(107.603 -0.111)"/><circle id="Ellipse_18-5" cx="3" cy="3" r="3" fill="#fff" data-name="Ellipse 18" transform="translate(214.604 -0.111)"/><circle id="Ellipse_6-5" cx="3" cy="3" r="3" fill="#fff" data-name="Ellipse 6" transform="translate(53.603 -0.111)"/><circle id="Ellipse_9-5" cx="3" cy="3" r="3" fill="#fff" data-name="Ellipse 9" transform="translate(160.603 -0.111)"/><circle id="Ellipse_15-5" cx="3" cy="3" r="3" fill="#fff" data-name="Ellipse 15" transform="translate(266.604 -0.111)"/><circle id="Ellipse_2-5" cx="3" cy="3" r="3" fill="#fff" data-name="Ellipse 2" transform="translate(17.603 -0.111)"/><circle id="Ellipse_11-5" cx="3" cy="3" r="3" fill="#fff" data-name="Ellipse 11" transform="translate(124.603 -0.111)"/><ellipse id="Ellipse_17-5" cx="3.5" cy="3" fill="#fff" data-name="Ellipse 17" rx="3.5" ry="3" transform="translate(231.604 -0.111)"/><ellipse id="Ellipse_5-5" cx="3.5" cy="3" fill="#fff" data-name="Ellipse 5" rx="3.5" ry="3" transform="translate(70.604 -0.111)"/><circle id="Ellipse_8-5" cx="3" cy="3" r="3" fill="#fff" data-name="Ellipse 8" transform="translate(178.603 -0.111)"/><circle id="Ellipse_14-5" cx="3" cy="3" r="3" fill="#fff" data-name="Ellipse 14" transform="translate(285.603 -0.111)"/><circle id="Ellipse_3-5" cx="3" cy="3" r="3" fill="#fff" data-name="Ellipse 3" transform="translate(36.604 -0.111)"/><circle id="Ellipse_10-5" cx="3" cy="3" r="3" fill="#fff" data-name="Ellipse 10" transform="translate(142.603 -0.111)"/><circle id="Ellipse_16-5" cx="3" cy="3" r="3" fill="#fff" data-name="Ellipse 16" transform="translate(249.603 -0.111)"/><circle id="Ellipse_4-5" cx="3" cy="3" r="3" fill="#fff" data-name="Ellipse 4" transform="translate(88.604 -0.111)"/><circle id="Ellipse_7-5" cx="3" cy="3" r="3" fill="#fff" data-name="Ellipse 7" transform="translate(195.603 -0.111)"/><ellipse id="Ellipse_13-5" cx="3.5" cy="3" fill="#fff" data-name="Ellipse 13" rx="3.5" ry="3" transform="translate(302.603 -0.111)"/></g><g id="Group_27" data-name="Group 27" transform="translate(378 929.552)"><ellipse id="Ellipse_1-6" cx="3.5" cy="3" fill="#fff" data-name="Ellipse 1" rx="3.5" ry="3" transform="translate(-0.397 -0.021)"/><circle id="Ellipse_12-6" cx="3" cy="3" r="3" fill="#fff" data-name="Ellipse 12" transform="translate(107.603 -0.021)"/><circle id="Ellipse_18-6" cx="3" cy="3" r="3" fill="#fff" data-name="Ellipse 18" transform="translate(214.604 -0.021)"/><circle id="Ellipse_6-6" cx="3" cy="3" r="3" fill="#fff" data-name="Ellipse 6" transform="translate(53.603 -0.021)"/><circle id="Ellipse_9-6" cx="3" cy="3" r="3" fill="#fff" data-name="Ellipse 9" transform="translate(160.603 -0.021)"/><circle id="Ellipse_15-6" cx="3" cy="3" r="3" fill="#fff" data-name="Ellipse 15" transform="translate(266.604 -0.021)"/><circle id="Ellipse_2-6" cx="3" cy="3" r="3" fill="#fff" data-name="Ellipse 2" transform="translate(17.603 -0.021)"/><circle id="Ellipse_11-6" cx="3" cy="3" r="3" fill="#fff" data-name="Ellipse 11" transform="translate(124.603 -0.021)"/><ellipse id="Ellipse_17-6" cx="3.5" cy="3" fill="#fff" data-name="Ellipse 17" rx="3.5" ry="3" transform="translate(231.604 -0.021)"/><ellipse id="Ellipse_5-6" cx="3.5" cy="3" fill="#fff" data-name="Ellipse 5" rx="3.5" ry="3" transform="translate(70.604 -0.021)"/><circle id="Ellipse_8-6" cx="3" cy="3" r="3" fill="#fff" data-name="Ellipse 8" transform="translate(178.603 -0.021)"/><circle id="Ellipse_14-6" cx="3" cy="3" r="3" fill="#fff" data-name="Ellipse 14" transform="translate(285.603 -0.021)"/><circle id="Ellipse_3-6" cx="3" cy="3" r="3" fill="#fff" data-name="Ellipse 3" transform="translate(36.604 -0.021)"/><circle id="Ellipse_10-6" cx="3" cy="3" r="3" fill="#fff" data-name="Ellipse 10" transform="translate(142.603 -0.021)"/><circle id="Ellipse_16-6" cx="3" cy="3" r="3" fill="#fff" data-name="Ellipse 16" transform="translate(249.603 -0.021)"/><circle id="Ellipse_4-6" cx="3" cy="3" r="3" fill="#fff" data-name="Ellipse 4" transform="translate(88.604 -0.021)"/><circle id="Ellipse_7-6" cx="3" cy="3" r="3" fill="#fff" data-name="Ellipse 7" transform="translate(195.603 -0.021)"/><ellipse id="Ellipse_13-6" cx="3.5" cy="3" fill="#fff" data-name="Ellipse 13" rx="3.5" ry="3" transform="translate(302.603 -0.021)"/></g><g id="Group_29" data-name="Group 29" transform="translate(378 964.463)"><ellipse id="Ellipse_1-7" cx="3.5" cy="3" fill="#fff" data-name="Ellipse 1" rx="3.5" ry="3" transform="translate(-0.397 0.068)"/><circle id="Ellipse_12-7" cx="3" cy="3" r="3" fill="#fff" data-name="Ellipse 12" transform="translate(107.603 0.068)"/><circle id="Ellipse_18-7" cx="3" cy="3" r="3" fill="#fff" data-name="Ellipse 18" transform="translate(214.604 0.068)"/><circle id="Ellipse_6-7" cx="3" cy="3" r="3" fill="#fff" data-name="Ellipse 6" transform="translate(53.603 0.068)"/><circle id="Ellipse_9-7" cx="3" cy="3" r="3" fill="#fff" data-name="Ellipse 9" transform="translate(160.603 0.068)"/><circle id="Ellipse_15-7" cx="3" cy="3" r="3" fill="#fff" data-name="Ellipse 15" transform="translate(266.604 0.068)"/><circle id="Ellipse_2-7" cx="3" cy="3" r="3" fill="#fff" data-name="Ellipse 2" transform="translate(17.603 0.068)"/><circle id="Ellipse_11-7" cx="3" cy="3" r="3" fill="#fff" data-name="Ellipse 11" transform="translate(124.603 0.068)"/><ellipse id="Ellipse_17-7" cx="3.5" cy="3" fill="#fff" data-name="Ellipse 17" rx="3.5" ry="3" transform="translate(231.604 0.068)"/><ellipse id="Ellipse_5-7" cx="3.5" cy="3" fill="#fff" data-name="Ellipse 5" rx="3.5" ry="3" transform="translate(70.604 0.068)"/><circle id="Ellipse_8-7" cx="3" cy="3" r="3" fill="#fff" data-name="Ellipse 8" transform="translate(178.603 0.068)"/><circle id="Ellipse_14-7" cx="3" cy="3" r="3" fill="#fff" data-name="Ellipse 14" transform="translate(285.603 0.068)"/><circle id="Ellipse_3-7" cx="3" cy="3" r="3" fill="#fff" data-name="Ellipse 3" transform="translate(36.604 0.068)"/><circle id="Ellipse_10-7" cx="3" cy="3" r="3" fill="#fff" data-name="Ellipse 10" transform="translate(142.603 0.068)"/><circle id="Ellipse_16-7" cx="3" cy="3" r="3" fill="#fff" data-name="Ellipse 16" transform="translate(249.603 0.068)"/><circle id="Ellipse_4-7" cx="3" cy="3" r="3" fill="#fff" data-name="Ellipse 4" transform="translate(88.604 0.068)"/><circle id="Ellipse_7-7" cx="3" cy="3" r="3" fill="#fff" data-name="Ellipse 7" transform="translate(195.603 0.068)"/><ellipse id="Ellipse_13-7" cx="3.5" cy="3" fill="#fff" data-name="Ellipse 13" rx="3.5" ry="3" transform="translate(302.603 0.068)"/></g><g id="Group_31" data-name="Group 31" transform="translate(378 999.373)"><ellipse id="Ellipse_1-8" cx="3.5" cy="3" fill="#fff" data-name="Ellipse 1" rx="3.5" ry="3" transform="translate(-0.397 0.158)"/><circle id="Ellipse_12-8" cx="3" cy="3" r="3" fill="#fff" data-name="Ellipse 12" transform="translate(107.603 0.158)"/><circle id="Ellipse_18-8" cx="3" cy="3" r="3" fill="#fff" data-name="Ellipse 18" transform="translate(214.604 0.158)"/><circle id="Ellipse_6-8" cx="3" cy="3" r="3" fill="#fff" data-name="Ellipse 6" transform="translate(53.603 0.158)"/><circle id="Ellipse_9-8" cx="3" cy="3" r="3" fill="#fff" data-name="Ellipse 9" transform="translate(160.603 0.158)"/><circle id="Ellipse_15-8" cx="3" cy="3" r="3" fill="#fff" data-name="Ellipse 15" transform="translate(266.604 0.158)"/><circle id="Ellipse_2-8" cx="3" cy="3" r="3" fill="#fff" data-name="Ellipse 2" transform="translate(17.603 0.158)"/><circle id="Ellipse_11-8" cx="3" cy="3" r="3" fill="#fff" data-name="Ellipse 11" transform="translate(124.603 0.158)"/><ellipse id="Ellipse_17-8" cx="3.5" cy="3" fill="#fff" data-name="Ellipse 17" rx="3.5" ry="3" transform="translate(231.604 0.158)"/><ellipse id="Ellipse_5-8" cx="3.5" cy="3" fill="#fff" data-name="Ellipse 5" rx="3.5" ry="3" transform="translate(70.604 0.158)"/><circle id="Ellipse_8-8" cx="3" cy="3" r="3" fill="#fff" data-name="Ellipse 8" transform="translate(178.603 0.158)"/><circle id="Ellipse_14-8" cx="3" cy="3" r="3" fill="#fff" data-name="Ellipse 14" transform="translate(285.603 0.158)"/><circle id="Ellipse_3-8" cx="3" cy="3" r="3" fill="#fff" data-name="Ellipse 3" transform="translate(36.604 0.158)"/><circle id="Ellipse_10-8" cx="3" cy="3" r="3" fill="#fff" data-name="Ellipse 10" transform="translate(142.603 0.158)"/><circle id="Ellipse_16-8" cx="3" cy="3" r="3" fill="#fff" data-name="Ellipse 16" transform="translate(249.603 0.158)"/><circle id="Ellipse_4-8" cx="3" cy="3" r="3" fill="#fff" data-name="Ellipse 4" transform="translate(88.604 0.158)"/><circle id="Ellipse_7-8" cx="3" cy="3" r="3" fill="#fff" data-name="Ellipse 7" transform="translate(195.603 0.158)"/><ellipse id="Ellipse_13-8" cx="3.5" cy="3" fill="#fff" data-name="Ellipse 13" rx="3.5" ry="3" transform="translate(302.603 0.158)"/></g><g id="Group_17" data-name="Group 17" transform="translate(378 772.455)"><ellipse id="Ellipse_1-9" cx="3.5" cy="3" fill="#fff" data-name="Ellipse 1" rx="3.5" ry="3" transform="translate(-0.397 0.076)"/><circle id="Ellipse_12-9" cx="3" cy="3" r="3" fill="#fff" data-name="Ellipse 12" transform="translate(107.603 0.076)"/><circle id="Ellipse_18-9" cx="3" cy="3" r="3" fill="#fff" data-name="Ellipse 18" transform="translate(214.604 0.076)"/><circle id="Ellipse_6-9" cx="3" cy="3" r="3" fill="#fff" data-name="Ellipse 6" transform="translate(53.603 0.076)"/><circle id="Ellipse_9-9" cx="3" cy="3" r="3" fill="#fff" data-name="Ellipse 9" transform="translate(160.603 0.076)"/><circle id="Ellipse_15-9" cx="3" cy="3" r="3" fill="#fff" data-name="Ellipse 15" transform="translate(266.604 0.076)"/><circle id="Ellipse_2-9" cx="3" cy="3" r="3" fill="#fff" data-name="Ellipse 2" transform="translate(17.603 0.076)"/><circle id="Ellipse_11-9" cx="3" cy="3" r="3" fill="#fff" data-name="Ellipse 11" transform="translate(124.603 0.076)"/><ellipse id="Ellipse_17-9" cx="3.5" cy="3" fill="#fff" data-name="Ellipse 17" rx="3.5" ry="3" transform="translate(231.604 0.076)"/><ellipse id="Ellipse_5-9" cx="3.5" cy="3" fill="#fff" data-name="Ellipse 5" rx="3.5" ry="3" transform="translate(70.604 0.076)"/><circle id="Ellipse_8-9" cx="3" cy="3" r="3" fill="#fff" data-name="Ellipse 8" transform="translate(178.603 0.076)"/><circle id="Ellipse_14-9" cx="3" cy="3" r="3" fill="#fff" data-name="Ellipse 14" transform="translate(285.603 0.076)"/><circle id="Ellipse_3-9" cx="3" cy="3" r="3" fill="#fff" data-name="Ellipse 3" transform="translate(36.604 0.076)"/><circle id="Ellipse_10-9" cx="3" cy="3" r="3" fill="#fff" data-name="Ellipse 10" transform="translate(142.603 0.076)"/><circle id="Ellipse_16-9" cx="3" cy="3" r="3" fill="#fff" data-name="Ellipse 16" transform="translate(249.603 0.076)"/><circle id="Ellipse_4-9" cx="3" cy="3" r="3" fill="#fff" data-name="Ellipse 4" transform="translate(88.604 0.076)"/><circle id="Ellipse_7-9" cx="3" cy="3" r="3" fill="#fff" data-name="Ellipse 7" transform="translate(195.603 0.076)"/><ellipse id="Ellipse_13-9" cx="3.5" cy="3" fill="#fff" data-name="Ellipse 13" rx="3.5" ry="3" transform="translate(302.603 0.076)"/></g><g id="Group_18" data-name="Group 18" transform="translate(378 807.366)"><ellipse id="Ellipse_1-10" cx="3.5" cy="3" fill="#fff" data-name="Ellipse 1" rx="3.5" ry="3" transform="translate(-0.397 0.166)"/><circle id="Ellipse_12-10" cx="3" cy="3" r="3" fill="#fff" data-name="Ellipse 12" transform="translate(107.603 0.166)"/><circle id="Ellipse_18-10" cx="3" cy="3" r="3" fill="#fff" data-name="Ellipse 18" transform="translate(214.604 0.166)"/><circle id="Ellipse_6-10" cx="3" cy="3" r="3" fill="#fff" data-name="Ellipse 6" transform="translate(53.603 0.166)"/><circle id="Ellipse_9-10" cx="3" cy="3" r="3" fill="#fff" data-name="Ellipse 9" transform="translate(160.603 0.166)"/><circle id="Ellipse_15-10" cx="3" cy="3" r="3" fill="#fff" data-name="Ellipse 15" transform="translate(266.604 0.166)"/><circle id="Ellipse_2-10" cx="3" cy="3" r="3" fill="#fff" data-name="Ellipse 2" transform="translate(17.603 0.166)"/><circle id="Ellipse_11-10" cx="3" cy="3" r="3" fill="#fff" data-name="Ellipse 11" transform="translate(124.603 0.166)"/><ellipse id="Ellipse_17-10" cx="3.5" cy="3" fill="#fff" data-name="Ellipse 17" rx="3.5" ry="3" transform="translate(231.604 0.166)"/><ellipse id="Ellipse_5-10" cx="3.5" cy="3" fill="#fff" data-name="Ellipse 5" rx="3.5" ry="3" transform="translate(70.604 0.166)"/><circle id="Ellipse_8-10" cx="3" cy="3" r="3" fill="#fff" data-name="Ellipse 8" transform="translate(178.603 0.166)"/><circle id="Ellipse_14-10" cx="3" cy="3" r="3" fill="#fff" data-name="Ellipse 14" transform="translate(285.603 0.166)"/><circle id="Ellipse_3-10" cx="3" cy="3" r="3" fill="#fff" data-name="Ellipse 3" transform="translate(36.604 0.166)"/><circle id="Ellipse_10-10" cx="3" cy="3" r="3" fill="#fff" data-name="Ellipse 10" transform="translate(142.603 0.166)"/><circle id="Ellipse_16-10" cx="3" cy="3" r="3" fill="#fff" data-name="Ellipse 16" transform="translate(249.603 0.166)"/><circle id="Ellipse_4-10" cx="3" cy="3" r="3" fill="#fff" data-name="Ellipse 4" transform="translate(88.604 0.166)"/><circle id="Ellipse_7-10" cx="3" cy="3" r="3" fill="#fff" data-name="Ellipse 7" transform="translate(195.603 0.166)"/><ellipse id="Ellipse_13-10" cx="3.5" cy="3" fill="#fff" data-name="Ellipse 13" rx="3.5" ry="3" transform="translate(302.603 0.166)"/></g><g id="Group_20" data-name="Group 20" transform="translate(378 842.276)"><ellipse id="Ellipse_1-11" cx="3.5" cy="3" fill="#fff" data-name="Ellipse 1" rx="3.5" ry="3" transform="translate(-0.397 0.255)"/><circle id="Ellipse_12-11" cx="3" cy="3" r="3" fill="#fff" data-name="Ellipse 12" transform="translate(107.603 0.255)"/><circle id="Ellipse_18-11" cx="3" cy="3" r="3" fill="#fff" data-name="Ellipse 18" transform="translate(214.604 0.255)"/><circle id="Ellipse_6-11" cx="3" cy="3" r="3" fill="#fff" data-name="Ellipse 6" transform="translate(53.603 0.255)"/><circle id="Ellipse_9-11" cx="3" cy="3" r="3" fill="#fff" data-name="Ellipse 9" transform="translate(160.603 0.255)"/><circle id="Ellipse_15-11" cx="3" cy="3" r="3" fill="#fff" data-name="Ellipse 15" transform="translate(266.604 0.255)"/><circle id="Ellipse_2-11" cx="3" cy="3" r="3" fill="#fff" data-name="Ellipse 2" transform="translate(17.603 0.255)"/><circle id="Ellipse_11-11" cx="3" cy="3" r="3" fill="#fff" data-name="Ellipse 11" transform="translate(124.603 0.255)"/><ellipse id="Ellipse_17-11" cx="3.5" cy="3" fill="#fff" data-name="Ellipse 17" rx="3.5" ry="3" transform="translate(231.604 0.255)"/><ellipse id="Ellipse_5-11" cx="3.5" cy="3" fill="#fff" data-name="Ellipse 5" rx="3.5" ry="3" transform="translate(70.604 0.255)"/><circle id="Ellipse_8-11" cx="3" cy="3" r="3" fill="#fff" data-name="Ellipse 8" transform="translate(178.603 0.255)"/><circle id="Ellipse_14-11" cx="3" cy="3" r="3" fill="#fff" data-name="Ellipse 14" transform="translate(285.603 0.255)"/><circle id="Ellipse_3-11" cx="3" cy="3" r="3" fill="#fff" data-name="Ellipse 3" transform="translate(36.604 0.255)"/><circle id="Ellipse_10-11" cx="3" cy="3" r="3" fill="#fff" data-name="Ellipse 10" transform="translate(142.603 0.255)"/><circle id="Ellipse_16-11" cx="3" cy="3" r="3" fill="#fff" data-name="Ellipse 16" transform="translate(249.603 0.255)"/><circle id="Ellipse_4-11" cx="3" cy="3" r="3" fill="#fff" data-name="Ellipse 4" transform="translate(88.604 0.255)"/><circle id="Ellipse_7-11" cx="3" cy="3" r="3" fill="#fff" data-name="Ellipse 7" transform="translate(195.603 0.255)"/><ellipse id="Ellipse_13-11" cx="3.5" cy="3" fill="#fff" data-name="Ellipse 13" rx="3.5" ry="3" transform="translate(302.603 0.255)"/></g><g id="Group_22" data-name="Group 22" transform="translate(378 877.187)"><ellipse id="Ellipse_1-12" cx="3.5" cy="3" fill="#fff" data-name="Ellipse 1" rx="3.5" ry="3" transform="translate(-0.397 0.345)"/><circle id="Ellipse_12-12" cx="3" cy="3" r="3" fill="#fff" data-name="Ellipse 12" transform="translate(107.603 0.345)"/><circle id="Ellipse_18-12" cx="3" cy="3" r="3" fill="#fff" data-name="Ellipse 18" transform="translate(214.604 0.345)"/><circle id="Ellipse_6-12" cx="3" cy="3" r="3" fill="#fff" data-name="Ellipse 6" transform="translate(53.603 0.345)"/><circle id="Ellipse_9-12" cx="3" cy="3" r="3" fill="#fff" data-name="Ellipse 9" transform="translate(160.603 0.345)"/><circle id="Ellipse_15-12" cx="3" cy="3" r="3" fill="#fff" data-name="Ellipse 15" transform="translate(266.604 0.345)"/><circle id="Ellipse_2-12" cx="3" cy="3" r="3" fill="#fff" data-name="Ellipse 2" transform="translate(17.603 0.345)"/><circle id="Ellipse_11-12" cx="3" cy="3" r="3" fill="#fff" data-name="Ellipse 11" transform="translate(124.603 0.345)"/><ellipse id="Ellipse_17-12" cx="3.5" cy="3" fill="#fff" data-name="Ellipse 17" rx="3.5" ry="3" transform="translate(231.604 0.345)"/><ellipse id="Ellipse_5-12" cx="3.5" cy="3" fill="#fff" data-name="Ellipse 5" rx="3.5" ry="3" transform="translate(70.604 0.345)"/><circle id="Ellipse_8-12" cx="3" cy="3" r="3" fill="#fff" data-name="Ellipse 8" transform="translate(178.603 0.345)"/><circle id="Ellipse_14-12" cx="3" cy="3" r="3" fill="#fff" data-name="Ellipse 14" transform="translate(285.603 0.345)"/><circle id="Ellipse_3-12" cx="3" cy="3" r="3" fill="#fff" data-name="Ellipse 3" transform="translate(36.604 0.345)"/><circle id="Ellipse_10-12" cx="3" cy="3" r="3" fill="#fff" data-name="Ellipse 10" transform="translate(142.603 0.345)"/><circle id="Ellipse_16-12" cx="3" cy="3" r="3" fill="#fff" data-name="Ellipse 16" transform="translate(249.603 0.345)"/><circle id="Ellipse_4-12" cx="3" cy="3" r="3" fill="#fff" data-name="Ellipse 4" transform="translate(88.604 0.345)"/><circle id="Ellipse_7-12" cx="3" cy="3" r="3" fill="#fff" data-name="Ellipse 7" transform="translate(195.603 0.345)"/><ellipse id="Ellipse_13-12" cx="3.5" cy="3" fill="#fff" data-name="Ellipse 13" rx="3.5" ry="3" transform="translate(302.603 0.345)"/></g><g id="Group_24" data-name="Group 24" transform="translate(378 912.097)"><ellipse id="Ellipse_1-13" cx="3.5" cy="3" fill="#fff" data-name="Ellipse 1" rx="3.5" ry="3" transform="translate(-0.397 0.434)"/><circle id="Ellipse_12-13" cx="3" cy="3" r="3" fill="#fff" data-name="Ellipse 12" transform="translate(107.603 0.434)"/><circle id="Ellipse_18-13" cx="3" cy="3" r="3" fill="#fff" data-name="Ellipse 18" transform="translate(214.604 0.434)"/><circle id="Ellipse_6-13" cx="3" cy="3" r="3" fill="#fff" data-name="Ellipse 6" transform="translate(53.603 0.434)"/><circle id="Ellipse_9-13" cx="3" cy="3" r="3" fill="#fff" data-name="Ellipse 9" transform="translate(160.603 0.434)"/><circle id="Ellipse_15-13" cx="3" cy="3" r="3" fill="#fff" data-name="Ellipse 15" transform="translate(266.604 0.434)"/><circle id="Ellipse_2-13" cx="3" cy="3" r="3" fill="#fff" data-name="Ellipse 2" transform="translate(17.603 0.434)"/><circle id="Ellipse_11-13" cx="3" cy="3" r="3" fill="#fff" data-name="Ellipse 11" transform="translate(124.603 0.434)"/><ellipse id="Ellipse_17-13" cx="3.5" cy="3" fill="#fff" data-name="Ellipse 17" rx="3.5" ry="3" transform="translate(231.604 0.434)"/><ellipse id="Ellipse_5-13" cx="3.5" cy="3" fill="#fff" data-name="Ellipse 5" rx="3.5" ry="3" transform="translate(70.604 0.434)"/><circle id="Ellipse_8-13" cx="3" cy="3" r="3" fill="#fff" data-name="Ellipse 8" transform="translate(178.603 0.434)"/><circle id="Ellipse_14-13" cx="3" cy="3" r="3" fill="#fff" data-name="Ellipse 14" transform="translate(285.603 0.434)"/><circle id="Ellipse_3-13" cx="3" cy="3" r="3" fill="#fff" data-name="Ellipse 3" transform="translate(36.604 0.434)"/><circle id="Ellipse_10-13" cx="3" cy="3" r="3" fill="#fff" data-name="Ellipse 10" transform="translate(142.603 0.434)"/><circle id="Ellipse_16-13" cx="3" cy="3" r="3" fill="#fff" data-name="Ellipse 16" transform="translate(249.603 0.434)"/><circle id="Ellipse_4-13" cx="3" cy="3" r="3" fill="#fff" data-name="Ellipse 4" transform="translate(88.604 0.434)"/><circle id="Ellipse_7-13" cx="3" cy="3" r="3" fill="#fff" data-name="Ellipse 7" transform="translate(195.603 0.434)"/><ellipse id="Ellipse_13-13" cx="3.5" cy="3" fill="#fff" data-name="Ellipse 13" rx="3.5" ry="3" transform="translate(302.603 0.434)"/></g><g id="Group_26" data-name="Group 26" transform="translate(378 947.008)"><circle id="Ellipse_1-14" cx="3.5" cy="3.5" r="3.5" fill="#fff" data-name="Ellipse 1" transform="translate(-0.397 -0.476)"/><ellipse id="Ellipse_12-14" cx="3" cy="3.5" fill="#fff" data-name="Ellipse 12" rx="3" ry="3.5" transform="translate(107.603 -0.476)"/><ellipse id="Ellipse_18-14" cx="3" cy="3.5" fill="#fff" data-name="Ellipse 18" rx="3" ry="3.5" transform="translate(214.604 -0.476)"/><ellipse id="Ellipse_6-14" cx="3" cy="3.5" fill="#fff" data-name="Ellipse 6" rx="3" ry="3.5" transform="translate(53.603 -0.476)"/><ellipse id="Ellipse_9-14" cx="3" cy="3.5" fill="#fff" data-name="Ellipse 9" rx="3" ry="3.5" transform="translate(160.603 -0.476)"/><ellipse id="Ellipse_15-14" cx="3" cy="3.5" fill="#fff" data-name="Ellipse 15" rx="3" ry="3.5" transform="translate(266.604 -0.476)"/><ellipse id="Ellipse_2-14" cx="3" cy="3.5" fill="#fff" data-name="Ellipse 2" rx="3" ry="3.5" transform="translate(17.603 -0.476)"/><ellipse id="Ellipse_11-14" cx="3" cy="3.5" fill="#fff" data-name="Ellipse 11" rx="3" ry="3.5" transform="translate(124.603 -0.476)"/><circle id="Ellipse_17-14" cx="3.5" cy="3.5" r="3.5" fill="#fff" data-name="Ellipse 17" transform="translate(231.604 -0.476)"/><circle id="Ellipse_5-14" cx="3.5" cy="3.5" r="3.5" fill="#fff" data-name="Ellipse 5" transform="translate(70.604 -0.476)"/><ellipse id="Ellipse_8-14" cx="3" cy="3.5" fill="#fff" data-name="Ellipse 8" rx="3" ry="3.5" transform="translate(178.603 -0.476)"/><ellipse id="Ellipse_14-14" cx="3" cy="3.5" fill="#fff" data-name="Ellipse 14" rx="3" ry="3.5" transform="translate(285.603 -0.476)"/><ellipse id="Ellipse_3-14" cx="3" cy="3.5" fill="#fff" data-name="Ellipse 3" rx="3" ry="3.5" transform="translate(36.604 -0.476)"/><ellipse id="Ellipse_10-14" cx="3" cy="3.5" fill="#fff" data-name="Ellipse 10" rx="3" ry="3.5" transform="translate(142.603 -0.476)"/><ellipse id="Ellipse_16-14" cx="3" cy="3.5" fill="#fff" data-name="Ellipse 16" rx="3" ry="3.5" transform="translate(249.603 -0.476)"/><ellipse id="Ellipse_4-14" cx="3" cy="3.5" fill="#fff" data-name="Ellipse 4" rx="3" ry="3.5" transform="translate(88.604 -0.476)"/><ellipse id="Ellipse_7-14" cx="3" cy="3.5" fill="#fff" data-name="Ellipse 7" rx="3" ry="3.5" transform="translate(195.603 -0.476)"/><circle id="Ellipse_13-14" cx="3.5" cy="3.5" r="3.5" fill="#fff" data-name="Ellipse 13" transform="translate(302.603 -0.476)"/></g><g id="Group_28" data-name="Group 28" transform="translate(378 981.918)"><circle id="Ellipse_1-15" cx="3.5" cy="3.5" r="3.5" fill="#fff" data-name="Ellipse 1" transform="translate(-0.397 -0.387)"/><ellipse id="Ellipse_12-15" cx="3" cy="3.5" fill="#fff" data-name="Ellipse 12" rx="3" ry="3.5" transform="translate(107.603 -0.387)"/><ellipse id="Ellipse_18-15" cx="3" cy="3.5" fill="#fff" data-name="Ellipse 18" rx="3" ry="3.5" transform="translate(214.604 -0.387)"/><ellipse id="Ellipse_6-15" cx="3" cy="3.5" fill="#fff" data-name="Ellipse 6" rx="3" ry="3.5" transform="translate(53.603 -0.387)"/><ellipse id="Ellipse_9-15" cx="3" cy="3.5" fill="#fff" data-name="Ellipse 9" rx="3" ry="3.5" transform="translate(160.603 -0.387)"/><ellipse id="Ellipse_15-15" cx="3" cy="3.5" fill="#fff" data-name="Ellipse 15" rx="3" ry="3.5" transform="translate(266.604 -0.387)"/><ellipse id="Ellipse_2-15" cx="3" cy="3.5" fill="#fff" data-name="Ellipse 2" rx="3" ry="3.5" transform="translate(17.603 -0.387)"/><ellipse id="Ellipse_11-15" cx="3" cy="3.5" fill="#fff" data-name="Ellipse 11" rx="3" ry="3.5" transform="translate(124.603 -0.387)"/><circle id="Ellipse_17-15" cx="3.5" cy="3.5" r="3.5" fill="#fff" data-name="Ellipse 17" transform="translate(231.604 -0.387)"/><circle id="Ellipse_5-15" cx="3.5" cy="3.5" r="3.5" fill="#fff" data-name="Ellipse 5" transform="translate(70.604 -0.387)"/><ellipse id="Ellipse_8-15" cx="3" cy="3.5" fill="#fff" data-name="Ellipse 8" rx="3" ry="3.5" transform="translate(178.603 -0.387)"/><ellipse id="Ellipse_14-15" cx="3" cy="3.5" fill="#fff" data-name="Ellipse 14" rx="3" ry="3.5" transform="translate(285.603 -0.387)"/><ellipse id="Ellipse_3-15" cx="3" cy="3.5" fill="#fff" data-name="Ellipse 3" rx="3" ry="3.5" transform="translate(36.604 -0.387)"/><ellipse id="Ellipse_10-15" cx="3" cy="3.5" fill="#fff" data-name="Ellipse 10" rx="3" ry="3.5" transform="translate(142.603 -0.387)"/><ellipse id="Ellipse_16-15" cx="3" cy="3.5" fill="#fff" data-name="Ellipse 16" rx="3" ry="3.5" transform="translate(249.603 -0.387)"/><ellipse id="Ellipse_4-15" cx="3" cy="3.5" fill="#fff" data-name="Ellipse 4" rx="3" ry="3.5" transform="translate(88.604 -0.387)"/><ellipse id="Ellipse_7-15" cx="3" cy="3.5" fill="#fff" data-name="Ellipse 7" rx="3" ry="3.5" transform="translate(195.603 -0.387)"/><circle id="Ellipse_13-15" cx="3.5" cy="3.5" r="3.5" fill="#fff" data-name="Ellipse 13" transform="translate(302.603 -0.387)"/></g><g id="Group_30" data-name="Group 30" transform="translate(378 1016.828)"><circle id="Ellipse_1-16" cx="3.5" cy="3.5" r="3.5" fill="#fff" data-name="Ellipse 1" transform="translate(-0.397 -0.297)"/><ellipse id="Ellipse_12-16" cx="3" cy="3.5" fill="#fff" data-name="Ellipse 12" rx="3" ry="3.5" transform="translate(107.603 -0.297)"/><ellipse id="Ellipse_18-16" cx="3" cy="3.5" fill="#fff" data-name="Ellipse 18" rx="3" ry="3.5" transform="translate(214.604 -0.297)"/><ellipse id="Ellipse_6-16" cx="3" cy="3.5" fill="#fff" data-name="Ellipse 6" rx="3" ry="3.5" transform="translate(53.603 -0.297)"/><ellipse id="Ellipse_9-16" cx="3" cy="3.5" fill="#fff" data-name="Ellipse 9" rx="3" ry="3.5" transform="translate(160.603 -0.297)"/><ellipse id="Ellipse_15-16" cx="3" cy="3.5" fill="#fff" data-name="Ellipse 15" rx="3" ry="3.5" transform="translate(266.604 -0.297)"/><ellipse id="Ellipse_2-16" cx="3" cy="3.5" fill="#fff" data-name="Ellipse 2" rx="3" ry="3.5" transform="translate(17.603 -0.297)"/><ellipse id="Ellipse_11-16" cx="3" cy="3.5" fill="#fff" data-name="Ellipse 11" rx="3" ry="3.5" transform="translate(124.603 -0.297)"/><circle id="Ellipse_17-16" cx="3.5" cy="3.5" r="3.5" fill="#fff" data-name="Ellipse 17" transform="translate(231.604 -0.297)"/><circle id="Ellipse_5-16" cx="3.5" cy="3.5" r="3.5" fill="#fff" data-name="Ellipse 5" transform="translate(70.604 -0.297)"/><ellipse id="Ellipse_8-16" cx="3" cy="3.5" fill="#fff" data-name="Ellipse 8" rx="3" ry="3.5" transform="translate(178.603 -0.297)"/><ellipse id="Ellipse_14-16" cx="3" cy="3.5" fill="#fff" data-name="Ellipse 14" rx="3" ry="3.5" transform="translate(285.603 -0.297)"/><ellipse id="Ellipse_3-16" cx="3" cy="3.5" fill="#fff" data-name="Ellipse 3" rx="3" ry="3.5" transform="translate(36.604 -0.297)"/><ellipse id="Ellipse_10-16" cx="3" cy="3.5" fill="#fff" data-name="Ellipse 10" rx="3" ry="3.5" transform="translate(142.603 -0.297)"/><ellipse id="Ellipse_16-16" cx="3" cy="3.5" fill="#fff" data-name="Ellipse 16" rx="3" ry="3.5" transform="translate(249.603 -0.297)"/><ellipse id="Ellipse_4-16" cx="3" cy="3.5" fill="#fff" data-name="Ellipse 4" rx="3" ry="3.5" transform="translate(88.604 -0.297)"/><ellipse id="Ellipse_7-16" cx="3" cy="3.5" fill="#fff" data-name="Ellipse 7" rx="3" ry="3.5" transform="translate(195.603 -0.297)"/><circle id="Ellipse_13-16" cx="3.5" cy="3.5" r="3.5" fill="#fff" data-name="Ellipse 13" transform="translate(302.603 -0.297)"/></g></g></svg>