<?xml version="1.0" encoding="utf-8"?>
<!-- Generator: Adobe Illustrator 23.0.1, SVG Export Plug-In . SVG Version: 6.00 Build 0)  -->
<svg version="1.1" id="Layer_1" xmlns="http://www.w3.org/2000/svg" xmlns:xlink="http://www.w3.org/1999/xlink" x="0px" y="0px"
	 viewBox="0 0 900 900" style="enable-background:new 0 0 900 900;" xml:space="preserve">
<style type="text/css">
	.st0{display:none;}
</style>
<path d="M99.08,368.85h0.98c2.97,0.61,4.46,1.93,4.46,3.94v80.46h40.49c2.67,0,4.24,1.73,4.73,5.18c-0.88,2.98-2.45,4.46-4.73,4.46
	H99.6c-2.54,0-4.11-1.66-4.73-4.99V374.3C95.27,370.67,96.67,368.85,99.08,368.85z"/>
<path d="M166.8,395.5c3.11,0.79,4.66,2.19,4.66,4.2v26.32c0,11.24,3.19,18.79,9.58,22.64c4.07,3.11,8.6,4.66,13.58,4.66
	c9.54,0,16.73-4.92,21.59-14.77c1.01-3.19,1.51-6.39,1.51-9.58v-28.55c0.66-3.28,2.3-4.92,4.92-4.92c3.11,0.7,4.66,2.25,4.66,4.66
	v58.54c0,2.19-1.55,3.59-4.66,4.2h-0.26c-3.11-0.57-4.66-2.12-4.66-4.66v-4.66h-0.26c-6.83,6.21-14.2,9.32-22.12,9.32h-1.71
	c-10.19,0-19.05-5.01-26.58-15.03c-3.46-5.38-5.18-12.01-5.18-19.88v-26.84C162.28,397.38,163.92,395.5,166.8,395.5z"/>
<path d="M271.15,396.09c8.62,0,16.43,3.26,23.43,9.78c6.65,7,9.98,14.88,9.98,23.63c0,12.51-5.93,22.36-17.79,29.53
	c-5.12,2.58-10.08,3.87-14.9,3.87h-1.97c-8.97,0-17.33-4.22-25.07-12.67c-4.73-6.69-7.09-13.61-7.09-20.74
	c0-10.85,4.79-19.95,14.37-27.3C258.24,398.12,264.59,396.09,271.15,396.09z M247.52,428.77v1.18c0,8.93,4.31,15.84,12.93,20.74
	c3.11,1.62,6.43,2.43,9.98,2.43h1.44c9.23,0,16.3-4.79,21.2-14.37c1.14-3.02,1.71-5.95,1.71-8.79v-1.18
	c0-7.44-3.41-13.69-10.24-18.77c-3.98-2.76-8.53-4.13-13.65-4.13c-10.11,0-17.5,5.27-22.18,15.82
	C247.92,424.26,247.52,426.63,247.52,428.77z"/>
<path d="M322.08,395.76c3.11,0.79,4.66,2.19,4.66,4.2v5.38c7.09-6.39,14.83-9.58,23.23-9.58c9.23,0,17.41,3.85,24.54,11.55
	c5.21,6.43,7.81,13.19,7.81,20.28v31.17c0,2.14-1.55,3.52-4.66,4.13h-0.26c-3.11-0.57-4.66-2.12-4.66-4.66V430.8
	c0-12.29-5.29-20.39-15.88-24.28c-2.58-0.66-4.88-0.98-6.89-0.98h-0.72c-8.88,0-15.75,4.59-20.61,13.78
	c-1.27,2.8-1.9,7.28-1.9,13.45v25.73c0,2.41-1.55,3.87-4.66,4.4h-0.26c-2.49,0-4.05-1.64-4.66-4.92V401.4
	C317.55,397.64,319.19,395.76,322.08,395.76z"/>
<path d="M398.07,368.33c2.71,0,4.94,3.48,6.69,10.43l24.41,64.71h0.2l27.37-73.17c1.36-1.31,2.69-1.97,4-1.97h0.26
	c2.54,0,4.11,1.66,4.72,4.99l-31.37,84.59c-0.74,3.33-2.41,4.99-4.99,4.99h-0.2c-2.98,0-5.23-3.24-6.76-9.71
	c-19.73-52.06-29.6-78.6-29.6-79.61v-0.52C392.82,370.43,394.57,368.85,398.07,368.33z"/>
<path d="M481.88,395.5c3.11,0.79,4.66,2.19,4.66,4.2v26.32c0,11.24,3.19,18.79,9.58,22.64c4.07,3.11,8.6,4.66,13.59,4.66
	c9.54,0,16.73-4.92,21.59-14.77c1.01-3.19,1.51-6.39,1.51-9.58v-28.55c0.66-3.28,2.3-4.92,4.92-4.92c3.11,0.7,4.66,2.25,4.66,4.66
	v58.54c0,2.19-1.55,3.59-4.66,4.2h-0.26c-3.11-0.57-4.66-2.12-4.66-4.66v-4.66h-0.26c-6.83,6.21-14.2,9.32-22.12,9.32h-1.71
	c-10.2,0-19.05-5.01-26.58-15.03c-3.46-5.38-5.18-12.01-5.18-19.88v-26.84C477.35,397.38,478.99,395.5,481.88,395.5z"/>
<path d="M561.94,378.5c3.15,0.79,4.73,2.19,4.73,4.2v1.44c0,2.32-1.73,3.72-5.18,4.2c-2.23,0-3.72-1.64-4.46-4.92
	C557.68,380.14,559.32,378.5,561.94,378.5z M561.94,395.3c3.15,0.79,4.73,2.19,4.73,4.2v58.93c0,2.45-1.58,3.94-4.73,4.46h-0.26
	c-2.49,0-4.05-1.64-4.66-4.92v-57.03C557.42,397.18,559.06,395.3,561.94,395.3z"/>
<path d="M585.31,368.66h61.23c2.97,0.57,4.46,2.06,4.46,4.46v0.98c0,2.41-1.82,3.81-5.45,4.2h-24.68v80.13
	c0,2.45-1.58,3.94-4.73,4.46h-0.2c-2.54,0-4.11-1.66-4.73-4.99v-79.6h-25.14c-3.32-0.66-4.99-2.3-4.99-4.92
	C581.81,370.23,583.21,368.66,585.31,368.66z"/>
<path d="M661.04,395.5c3.11,0.79,4.66,2.19,4.66,4.2v26.32c0,11.24,3.19,18.79,9.58,22.64c4.07,3.11,8.6,4.66,13.58,4.66
	c9.54,0,16.74-4.92,21.59-14.77c1.01-3.19,1.51-6.39,1.51-9.58v-28.55c0.66-3.28,2.3-4.92,4.92-4.92c3.11,0.7,4.66,2.25,4.66,4.66
	v58.54c0,2.19-1.55,3.59-4.66,4.2h-0.26c-3.11-0.57-4.66-2.12-4.66-4.66v-4.66h-0.26c-6.83,6.21-14.2,9.32-22.12,9.32h-1.71
	c-10.19,0-19.05-5.01-26.58-15.03c-3.46-5.38-5.18-12.01-5.18-19.88v-26.84C656.51,397.38,658.15,395.5,661.04,395.5z"/>
<path d="M765.39,396.09c8.62,0,16.43,3.26,23.43,9.78c6.65,7,9.97,14.88,9.97,23.63c0,12.51-5.93,22.36-17.79,29.53
	c-5.12,2.58-10.08,3.87-14.9,3.87h-1.97c-8.97,0-17.33-4.22-25.07-12.67c-4.72-6.69-7.09-13.61-7.09-20.74
	c0-10.85,4.79-19.95,14.37-27.3C752.48,398.12,758.82,396.09,765.39,396.09z M741.76,428.77v1.18c0,8.93,4.31,15.84,12.93,20.74
	c3.11,1.62,6.43,2.43,9.98,2.43h1.44c9.23,0,16.3-4.79,21.2-14.37c1.14-3.02,1.71-5.95,1.71-8.79v-1.18
	c0-7.44-3.41-13.69-10.24-18.77c-3.98-2.76-8.53-4.13-13.65-4.13c-10.11,0-17.5,5.27-22.18,15.82
	C742.16,424.26,741.76,426.63,741.76,428.77z"/>
<path d="M817.89,378.5c3.15,0.79,4.73,2.19,4.73,4.2v1.44c0,2.32-1.73,3.72-5.18,4.2c-2.23,0-3.72-1.64-4.46-4.92
	C813.62,380.14,815.26,378.5,817.89,378.5z M817.89,395.3c3.15,0.79,4.73,2.19,4.73,4.2v58.93c0,2.45-1.58,3.94-4.73,4.46h-0.26
	c-2.49,0-4.05-1.64-4.66-4.92v-57.03C813.36,397.18,815,395.3,817.89,395.3z"/>
<path d="M379.65,266.05c0-21.19,1.21-36.83,3.63-46.92c2.42-10.09,7.06-18.47,13.93-25.13c5.45-5.25,11.7-9.08,18.77-11.5
	c7.06-2.42,16.14-3.94,27.25-4.54v-6.96H249.77v6.96c10.9,0.41,19.83,1.82,26.79,4.24s13.27,6.26,18.92,11.5
	c6.86,6.46,11.55,14.79,14.08,24.98c2.52,10.19,3.78,25.99,3.78,47.38V378h66.3V266.05z"/>
<path d="M607.91,468.5c-3.84,18.77-8.02,33.91-12.56,45.41s-10.34,21.8-17.41,30.88c-10.5,13.32-23.97,23.16-40.42,29.52
	c-16.45,6.36-36.68,9.54-60.7,9.54c-23.01,0-41.47-3.38-55.4-10.14c-13.93-6.76-24.42-17.41-31.48-31.94
	c-4.04-8.27-6.77-18.97-8.17-32.09c-0.88-8.2-1.49-19.1-1.82-32.67h-66.6v21.17c0,20.59-1.16,35.87-3.48,45.86
	c-2.32,9.99-6.61,18.22-12.87,24.67c-11.1,11.5-26.84,17.26-47.23,17.26v7.27h361.47l3.94-124.12L607.91,468.5z"/>
<path class="st0" d="M379.65,449.73V387h-66.3v90h66.6C379.75,468.87,379.65,459.78,379.65,449.73z"/>
</svg>
